<svg width="1183" height="276" viewBox="0 0 1183 276" fill="none" xmlns="http://www.w3.org/2000/svg">
<path fill-rule="evenodd" clip-rule="evenodd" d="M207.688 73.8292H186.99V91.0798H207.688V73.8292ZM207.688 97.9798H186.99V118.679H207.688V97.9798ZM180.09 97.9798V118.679H159.388V97.9798H180.09ZM180.09 125.579H159.388V146.279H180.09V125.579ZM180.09 153.179H159.388V173.878H180.09V153.179ZM152.488 153.179V173.878H131.787V153.179H152.488ZM152.488 180.778H131.787V201.478H152.488V180.778ZM180.09 201.478H159.388V180.778H180.09V201.478ZM207.688 201.478H186.99V180.778H207.688V201.478ZM124.887 201.478V180.778H104.185V201.478H124.887ZM97.2851 201.478V180.778H76.5875V201.478H97.2851ZM69.6875 201.478V180.778V173.878V153.179V146.279V125.579V118.679V97.9798V91.0798V73.8292V69H42.9477C39.0589 69 35.3295 70.4539 32.5797 73.0419C29.83 75.6299 28.2852 79.14 28.2852 82.8V103.5C28.2852 105.33 29.0576 107.085 30.4324 108.379C31.8073 109.673 33.672 110.4 35.6164 110.4C43.3939 110.4 50.8528 113.308 56.3523 118.484C61.8518 123.66 64.9414 130.68 64.9414 138C64.9414 145.32 61.8518 152.34 56.3523 157.516C50.8528 162.692 43.3939 165.6 35.6164 165.6C33.672 165.6 31.8073 166.327 30.4324 167.621C29.0576 168.915 28.2852 170.67 28.2852 172.5V193.2C28.2852 196.86 29.83 200.37 32.5797 202.958C35.3295 205.546 39.0589 207 42.9477 207H69.6875L69.6875 201.478ZM214.587 207H248.223C252.111 207 255.841 205.546 258.591 202.958C261.34 200.37 262.885 196.86 262.885 193.2V172.5C262.885 170.67 262.113 168.915 260.738 167.621C259.363 166.327 257.498 165.6 255.554 165.6C247.776 165.6 240.317 162.692 234.818 157.516C229.318 152.34 226.229 145.32 226.229 138C226.229 130.68 229.318 123.66 234.818 118.484C240.317 113.308 247.776 110.4 255.554 110.4C257.498 110.4 259.363 109.673 260.738 108.379C262.113 107.085 262.885 105.33 262.885 103.5V82.8C262.885 79.14 261.34 75.6299 258.591 73.0419C255.841 70.4539 252.111 69 248.223 69H214.587L214.588 73.8292V91.0798V97.9798V118.679V125.579V146.279V153.179V173.878V180.778V201.478L214.587 207ZM124.887 153.179V173.878H104.185V153.179H124.887ZM97.2852 153.179V173.878H76.5875V153.179H97.2852ZM186.99 173.878H207.688V153.179H186.99V173.878ZM152.488 146.279V125.579H131.787V146.279H152.488ZM124.887 146.279V125.579H104.185V146.279H124.887ZM97.2852 146.279V125.579H76.5875V146.279H97.2852ZM207.688 146.279H186.99V125.579H207.688V146.279ZM152.488 97.9798V118.679H131.787V97.9798H152.488ZM124.887 97.9798V118.679H104.185V97.9798H124.887ZM97.2852 97.9798V118.679H76.5875V97.9798H97.2852ZM180.09 91.0798V73.8292H159.388V91.0798H180.09ZM152.488 91.0798V73.8292H131.787V91.0798H152.488ZM124.887 91.0798V73.8292H104.185V91.0798H124.887ZM97.2852 91.0798V73.8292H76.5875V91.0798H97.2852Z" fill="#00D26C"/>
<path d="M350.789 201.5H373.844L400.237 160.902L426.551 201.5H449.451L411.725 144.989L448.519 89.72H425.465L400.237 129.076L374.776 89.72H351.876L388.67 144.989L350.789 201.5ZM469.598 201.5H488.306V162.455H515.785C516.82 162.455 518.191 162.403 519.899 162.299C521.659 162.196 523.263 162.041 524.712 161.834C534.337 160.333 541.479 156.322 546.136 149.802C550.846 143.229 553.2 135.338 553.2 126.126C553.2 116.863 550.871 108.971 546.214 102.45C541.608 95.8782 534.441 91.8417 524.712 90.341C523.263 90.0822 521.684 89.927 519.977 89.8752C518.269 89.7717 516.872 89.72 515.785 89.72H469.598V201.5ZM488.306 144.989V107.263H515.009C516.044 107.263 517.208 107.315 518.502 107.418C519.796 107.522 520.986 107.703 522.073 107.962C525.178 108.738 527.61 110.135 529.369 112.154C531.181 114.12 532.448 116.345 533.173 118.829C533.949 121.313 534.337 123.746 534.337 126.126C534.337 128.507 533.949 130.939 533.173 133.423C532.448 135.907 531.181 138.132 529.369 140.099C527.61 142.065 525.178 143.436 522.073 144.213C520.986 144.523 519.796 144.73 518.502 144.834C517.208 144.937 516.044 144.989 515.009 144.989H488.306ZM578.067 201.5H646.144V183.957H596.775V89.72H578.067V201.5ZM711.298 203.829C722.476 203.829 732.05 201.396 740.019 196.532C748.041 191.616 754.173 184.785 758.416 176.039C762.712 167.293 764.859 157.15 764.859 145.61C764.859 134.018 762.712 123.875 758.416 115.181C754.173 106.435 748.041 99.6301 740.019 94.7656C732.05 89.8494 722.476 87.3912 711.298 87.3912C700.172 87.3912 690.598 89.8494 682.577 94.7656C674.607 99.6301 668.475 106.435 664.18 115.181C659.936 123.875 657.814 134.018 657.814 145.61C657.814 157.15 659.936 167.293 664.18 176.039C668.475 184.785 674.607 191.616 682.577 196.532C690.598 201.396 700.172 203.829 711.298 203.829ZM711.298 186.208C700.068 186.053 691.633 182.301 685.992 174.952C680.352 167.604 677.557 157.823 677.609 145.61C677.661 137.433 678.928 130.292 681.412 124.185C683.896 118.079 687.622 113.344 692.59 109.98C697.558 106.565 703.794 104.909 711.298 105.012C722.58 105.167 731.015 108.919 736.604 116.268C742.245 123.616 745.065 133.397 745.065 145.61C745.065 153.735 743.797 160.876 741.261 167.034C738.777 173.141 735.025 177.876 730.006 181.24C725.038 184.604 718.802 186.26 711.298 186.208ZM788.073 201.5H806.78V162.455H833.328L852.269 201.5H873.46L852.812 159.117C859.177 156.27 863.912 151.949 867.017 146.153C870.122 140.357 871.675 133.682 871.675 126.126C871.675 116.863 869.346 108.971 864.689 102.45C860.083 95.8782 852.916 91.8417 843.187 90.341C841.738 90.0822 840.159 89.927 838.451 89.8752C836.744 89.7717 835.346 89.72 834.26 89.72H788.073V201.5ZM806.78 144.989V107.263H833.483C834.518 107.263 835.683 107.315 836.977 107.418C838.27 107.522 839.461 107.703 840.547 107.962C843.652 108.738 846.085 110.135 847.844 112.154C849.655 114.12 850.923 116.345 851.648 118.829C852.424 121.313 852.812 123.746 852.812 126.126C852.812 128.507 852.424 130.939 851.648 133.423C850.923 135.907 849.655 138.132 847.844 140.099C846.085 142.065 843.652 143.436 840.547 144.213C839.461 144.523 838.27 144.73 836.977 144.834C835.683 144.937 834.518 144.989 833.483 144.989H806.78ZM898.325 201.5H970.516V183.957H917.032V152.363H961.201V134.82H917.032V107.263H970.516V89.72H898.325V201.5ZM996.902 201.5H1069.09V183.957H1015.61V152.363H1059.78V134.82H1015.61V107.263H1069.09V89.72H996.902V201.5ZM1122.34 201.5H1141.05V107.263H1177.22V89.72H1086.16V107.263H1122.34V201.5Z" fill="white"/>
</svg>
